<?xml version="1.0" encoding="utf-8"?>
<!-- Generator: Adobe Illustrator 22.0.1, SVG Export Plug-In . SVG Version: 6.00 Build 0)  -->
<svg version="1.1" id="Layer_1" xmlns="http://www.w3.org/2000/svg" xmlns:xlink="http://www.w3.org/1999/xlink" x="0px" y="0px"
	 viewBox="0 0 100.06 91.58" enable-background="new 0 0 100.06 91.58" xml:space="preserve">
<path fill="#C5CA0A" d="M60.71,87.55c2.27-1.72,5.21-4.5,6.96-8.65c3.19-7.53,1.32-16.82,1.42-16.83c0.01,0,0.03,0.1,0.07,0.71
	c1.8,0.67,8.36,2.89,15.79,0.08c4.95-1.87,7.96-5.09,9.32-6.76c-2.61,4.8-6.91,11.43-13.72,17.94
	C73.23,81.04,65.85,85.18,60.71,87.55z"/>
<path fill="#FFFB0A" d="M74.43,84.39"/>
<path fill="#ACFB0A" d="M56.03,88.01c2.44-0.33,7.86-1.41,11.2-5.54l0,0c5.16-5.81,3.61-17.29,3.61-17.29
	c1.19,0.47,7.53,2.85,14.35-0.21c7.05-3.17,9.47-9.85,9.55-10.16c0-0.01,0.17-0.62,0.18-0.62c0,0,0,0.01,0,0.02
	c-0.46,3.55-1.52,7.53-3.67,11.57C81.96,83.25,59.81,87.37,56.03,88.01z"/>
<path fill="#6AFF0A" d="M100,0c-0.14,13.47-0.07,23.89,0,30.59c0.08,7.19,0.4,11.41-2,16.55c-4.51,9.65-13.91,13.11-14.7,13.39
	c-7.39,2.59-13.8,0.97-16.09,0.27c0.74,2.72,1.62,7.67-0.07,13.26C63.76,85.28,53.01,89.45,51.53,90
	c-4.08,1.51-7.73,1.65-10.02,1.56C27.67,91.37,13.84,91.19,0,91C0,60.67,0,30.33,0,0H100z"/>
</svg>
