<?xml version="1.0" encoding="utf-8"?>
<!-- Generator: Adobe Illustrator 22.0.1, SVG Export Plug-In . SVG Version: 6.00 Build 0)  -->
<svg version="1.1" id="Layer_1" xmlns="http://www.w3.org/2000/svg" xmlns:xlink="http://www.w3.org/1999/xlink" x="0px" y="0px"
	 viewBox="0 0 512 512" enable-background="new 0 0 512 512" xml:space="preserve">
<path stroke="#000000" stroke-width="1.2952" stroke-miterlimit="10" d="M-0.07,512c1.656-51.31,8.375-93.005,14.457-122.238
	c11.407-54.828,17.573-82.651,40.28-102.721c25.636-22.659,64.76-31.998,98.57-24.592c58.128,12.733,67.201,67.659,105.512,64.728
	c36.743-2.811,37.989-54.067,87.005-68.152c37.809-10.864,79.822,7.348,104.151,30.056c22.102,20.63,29.095,47.367,42.177,100
	c7.465,30.035,15.844,71.791,19.849,122.918C341.264,512,170.597,512-0.07,512z"/>
<ellipse stroke="#000000" stroke-width="1.1823" stroke-miterlimit="10" cx="255.93" cy="154.919" rx="104.135" ry="107.632"/>
</svg>
