<?xml version="1.0" encoding="utf-8"?>
<!-- Generator: Adobe Illustrator 22.0.1, SVG Export Plug-In . SVG Version: 6.00 Build 0)  -->
<svg version="1.1" id="Layer_1" xmlns="http://www.w3.org/2000/svg" xmlns:xlink="http://www.w3.org/1999/xlink" x="0px" y="0px"
	 viewBox="0 0 512 512" style="enable-background:new 0 0 512 512;" xml:space="preserve">
<style type="text/css">
	.st0{fill:#FFFFFF;}
</style>
<g>
	<rect x="71.81633" y="71.81633" class="st0" width="368.36734" height="368.36734"/>
	<path d="M440.68359,440.68359H71.31641V71.31641h369.36719V440.68359z M72.31641,439.68359h367.36719V72.31641
		c-37.86279,1.73354-75.72556,3.46706-113.58835,5.2006c-23.35602,8.16327-46.71201,16.32653-70.06802,24.4898
		c1.58731,20.1814,3.17459,40.36281,4.7619,60.54422c-18.5941,31.51927-37.18822,63.03856-55.78232,94.55783
		c10.20409-41.04309,20.40816-82.08617,30.61224-123.12926c-17.91383-14.96599-35.82767-29.93198-53.7415-44.89796
		c-36.52039-5.58841-73.04076-11.17682-109.56114-16.76523C72.31641,194.77214,72.31641,317.22787,72.31641,439.68359z"/>
</g>
</svg>
