<?xml version="1.0" encoding="utf-8"?>
<!-- Generator: Adobe Illustrator 22.0.1, SVG Export Plug-In . SVG Version: 6.00 Build 0)  -->
<svg version="1.1" id="Capa_1" xmlns="http://www.w3.org/2000/svg" xmlns:xlink="http://www.w3.org/1999/xlink" x="0px" y="0px"
	 viewBox="0 0 459 459" style="enable-background:new 0 0 459 459;" xml:space="preserve">
<style type="text/css">
	.st0{fill:#FFFFFF;stroke:#000000;stroke-miterlimit:10;}
	.st1{fill:#FFFB66;stroke:#000000;stroke-width:0.7778;stroke-miterlimit:10;}
	.st2{opacity:0.29;stroke:#000000;stroke-miterlimit:10;}
	.st3{fill:none;stroke:#000000;stroke-miterlimit:10;}
</style>
<path class="st0" d="M448,136c-8.4-35.9-15.2-65.1-37.5-84c-6.8-5.7-25.5-19.4-60.6-19.1C321.3,31.7,192.1,26.7,101,34
	c-15.5,1.2-36.1,3.3-53.5,18c-23.3,19.6-31.3,53.8-38.2,83.5c-3.4,14.4-5.5,30.4-5.5,30.4L0,408c0,0,0.9,12.4,7,18.5
	c4.5,4.5,10.8,7,18.5,7H51c15.3,0,25.5-10.2,25.5-25.5c0.2-10.3,0.3-20.7,0.5-31c101-1,202-2,303-3c0.8,11.3,1.7,22.7,2.5,34
	c-0.1,1.4-0.4,12,8.1,19.5c7.2,6.4,15.7,6.1,17.4,6h25.5c15.3,0,25.5-10.2,25.5-25.5c-1.8-80.5-3.6-160.9-5.5-241.4
	C452.6,159.6,451,148.8,448,136z"/>
<circle class="st1" cx="80.8" cy="283.2" r="29.8"/>
<circle class="st1" cx="379.3" cy="283.2" r="29.8"/>
<path class="st2" d="M51,178.5c-2.1-11.4-5.4-37.6,6-67.5c9.2-24.1,23.9-39.6,32.2-47.2c93.5,0,187,0,280.5,0
	c8.5,8.8,22.4,25.4,31.2,50.2c9.9,27.8,8.6,52,7,64.5C289,178.5,170,178.5,51,178.5z"/>
<path class="st3" d="M-85,198"/>
<path class="st3" d="M-161,289"/>
</svg>
