<?xml version="1.0" encoding="utf-8"?>
<!-- Generator: Adobe Illustrator 22.0.1, SVG Export Plug-In . SVG Version: 6.00 Build 0)  -->
<svg version="1.1" id="Capa_1" xmlns="http://www.w3.org/2000/svg" xmlns:xlink="http://www.w3.org/1999/xlink" x="0px" y="0px"
	 viewBox="0 0 459 459" style="enable-background:new 0 0 459 459;" xml:space="preserve">
<style type="text/css">
	.st0{stroke:#000000;stroke-miterlimit:10;}
	.st1{fill:#4AFFC9;stroke:#000000;stroke-width:0.7778;stroke-miterlimit:10;}
	.st2{fill:#FFFFFF;stroke:#000000;stroke-miterlimit:10;}
	.st3{fill:none;stroke:#000000;stroke-miterlimit:10;}
</style>
<path class="st0" d="M448,136c-0.8-10.1-7.3-79.1-56.6-103.5c-5.9-2.9-13.1-5.5-21.7-7H89.2c-5.6,0.7-13.6,2.4-22.3,6.8
	C59.2,36.2,44.9,45.4,31,73C7.1,120.6,1.1,190.3,0,204c0,68,0,136,0,204c0,15.3,10.2,25.5,25.5,25.5H51c15.3,0,25.5-10.2,25.5-25.5
	v-25.5h306V408c0,15.3,10.2,25.5,25.5,25.5h25.5c15.3,0,25.5-10.2,25.5-25.5V204C455.3,181.3,451.7,158.7,448,136z"/>
<circle class="st1" cx="80.8" cy="283.2" r="29.8"/>
<circle class="st1" cx="379.3" cy="283.2" r="29.8"/>
<path class="st2" d="M51,178.5c-2.1-11.4-5.4-37.6,6-67.5c9.2-24.1,23.9-39.6,32.2-47.2c93.5,0,187,0,280.5,0
	c8.5,8.8,22.4,25.4,31.2,50.2c9.9,27.8,8.6,52,7,64.5C289,178.5,170,178.5,51,178.5z"/>
<path class="st3" d="M-85,198"/>
<path class="st3" d="M-161,289"/>
</svg>
