<?xml version="1.0" encoding="utf-8"?>
<!-- Generator: Adobe Illustrator 22.0.1, SVG Export Plug-In . SVG Version: 6.00 Build 0)  -->
<svg version="1.1" id="Layer_1" xmlns="http://www.w3.org/2000/svg" xmlns:xlink="http://www.w3.org/1999/xlink" x="0px" y="0px"
	 viewBox="0 0 489.3 537.2" style="enable-background:new 0 0 489.3 537.2;" xml:space="preserve">
<style type="text/css">
	.st0{fill:none;stroke:#000000;stroke-width:23;stroke-miterlimit:10;}
	.st1{fill:#FFFFFF;stroke:#000000;stroke-width:23;stroke-miterlimit:10;}
</style>
<path class="st0" d="M190.3,289.8"/>
<path class="st1" d="M173.8,286.7c16.5,3.9,27.2-93.4,28.7-103.8c5.5-38.5,13.2-77.6,23.4-115.1c4.9-18,19.9-31.7,40-25.4
	c22.6,7.1,21.8,30.3,19.5,49.5c-4.6,37.4-14.3,74.6-22.1,111.5c-1.9,9-21.1,96.3-18.3,96.8c3.9,0.6,43.3-221.2,49.4-239.6
	c5.3-16,14.6-35.2,34.6-34.3c22.1,1,29.2,20.3,26.6,39.5c-6.5,48.3-20.6,96.7-31.1,144.4c-0.7,3-19.8,78-18.2,78.7
	c5.4,2.4,9.4-34.5,10-38c2-11.6,4.2-23.1,6.9-34.5c4.5-19.1,9.7-37.9,14.2-57c5.7-24.2,10-49.2,17-73c5.1-17.4,18.5-31.5,38-25.7
	c28.3,8.3,20.7,41.6,15.5,63.1c-5.8,24.2-12.5,48.2-17.9,72.5c-2.8,12.5-30.4,122.4-30.4,122.4c-0.6-0.2,16.9-47.5,27.1-100.5
	c2.7-14.2,7.3-28,9.5-42.3c2.9-18.8,3.4-32.4,13.9-43.6c7-7.4,13.5-8.6,15.2-8.8c0.5-0.1,10.5-1.4,17.4,4.4c8.7,7.4,7.4,22,6.7,28.6
	c-4.8,45.7-21.6,116.2-22.1,118.8c-7.7,34.8-14.9,69.3-20.7,104.4c-2.8,16.9-7.2,32.5-13.3,48.5c-10.9,28.8-24.3,62.8-44.9,86.1
	c-13.9,15.8-29.5,11-47.6,6.3c-26.1-6.8-52.5-12.9-79.2-16.7c-13.3-1.9-30,0-42.6-5.5c-11.5-5-14.6-15.7-18.1-26.9
	c-8.2-26-16.9-51.6-27.4-76.7c-11.1-26.6-23.6-54.6-27.8-83.3c-2-13.6,0.4-26.7,0.1-40.3c-0.4-15.8-6.1-30.6-5.1-46.5
	c0.9-13.5,0.1-24.7-1.9-38c-1.8-12.4,1.6-24.1,13.4-30.8c30.7-17.4,55.3,30,59,53.5C172.6,218.4,167.4,285.2,173.8,286.7z"/>
<path class="st0" d="M217.6,167.2"/>
<path class="st1" d="M125.1,314.6c16.6-2.9-11.1-95.7-13.7-105.6c-10.1-38-18.3-77.4-23.7-116.3c-2.5-18,5.7-36.1,25.5-38.8
	c23.1-3.2,32.2,16.8,37.8,35.2c11,36.4,16.4,75.2,23.7,112.5c2,10,18.5,98.3,21.2,97.6c3.7-0.9-46.9-223.1-48.2-242.9
	c-1-16.3,1.5-36.2,19.5-42.4c19.4-6.7,33.3,6.5,38.5,24.2c13.8,46.5,18.9,97.4,27.8,145.2c0.6,3.2,12.5,81.5,14.3,81.6
	c5.9,0.1-4.8-35.4-5.6-38.9c-2.7-11.4-5.1-22.9-7.1-34.5c-3.3-19.3-5.8-38.7-9.2-58c-3.9-22.6-7.9-45.2-11.7-67.8
	C211,46,214.2,23.8,238.2,21c31.8-3.7,36.2,35.6,39.9,58.1c3.8,22.5,6.6,45.2,10.8,67.7c12.9,70.1,19.5,124.6,19.7,124.6
	c0.1,0-3.4-25.3-8.5-56.8c-6-37-11.2-67.9-11.2-67.9c-7.6-36.6-9.6-64.5-6.3-73.3c2-5.4,5.6-8.7,5.6-8.7c4.6-4.2,10-5.2,12.4-5.5
	c8.4-0.9,14.7,3.3,16.4,4.6c7.4,5.4,10.1,13.2,11.2,16.4c13.5,40.4,16.3,63.2,16.3,63.2c2.4,19.3,6.2,38.4,8.7,57.6
	c6.1,45.8,7.5,47.9,22,106.4c11.3,45.4,13.2,102.1-0.1,146.9c-5.7,19.1-19.2,22.6-37.2,25.3c-26.4,4-52.8,8.3-78.8,14.8
	c-29.7,7.5-50,23-72.8-3.6c-18.1-21.1-36.2-41.7-56.1-61.1c-20.6-20.1-43-41.1-58.1-65.8c-7.2-11.8-10-24.8-15.6-37.2
	c-6.8-15-17.7-26.9-23.3-42.6c-4.7-13.3-11.5-23.1-18-35.3c-5.6-10.6-4.4-24.6,4.4-33.5c24.1-24.3,62.9,11.3,74.8,31.8
	C98.8,255.1,118.3,315.8,125.1,314.6z"/>
<line class="st0" x1="86" y1="38.9" x2="45.3" y2="9.3"/>
<line class="st0" x1="72.2" y1="60" x2="11.5" y2="32.3"/>
<line class="st0" x1="61" y1="84.3" x2="3.1" y2="75.8"/>
<line class="st0" x1="417" y1="46.1" x2="436.7" y2="20.5"/>
<line class="st0" x1="439.3" y1="66.5" x2="476.2" y2="46.1"/>
<line class="st0" x1="453.1" y1="91.5" x2="489.3" y2="91.5"/>
</svg>
