<?xml version="1.0" encoding="utf-8"?>
<!-- Generator: Adobe Illustrator 22.0.1, SVG Export Plug-In . SVG Version: 6.00 Build 0)  -->
<svg version="1.1" xmlns="http://www.w3.org/2000/svg" xmlns:xlink="http://www.w3.org/1999/xlink" x="0px" y="0px"
	 viewBox="0 0 429.79547 445.84705" style="enable-background:new 0 0 429.79547 445.84705;" xml:space="preserve">
<style type="text/css">
	.st0{fill:url(#SVGID_1_);}
	.st1{fill:#CCCCCC;stroke:#000000;stroke-width:11;stroke-miterlimit:10;}
	.st2{fill:none;stroke:#000000;stroke-miterlimit:10;}
	.st3{fill:none;}
	.st4{fill:none;stroke:#000000;stroke-width:11;stroke-miterlimit:10;}
	.st5{fill:#00FFFF;stroke:#000000;stroke-width:16.74413;stroke-miterlimit:10;}
	.st6{fill:#00FFFF;stroke:#000000;stroke-width:22;stroke-miterlimit:10;}
	.st7{fill:none;stroke:#000000;stroke-width:16.74413;stroke-linecap:square;stroke-linejoin:round;stroke-miterlimit:10;}
</style>
<g id="Layer_1">
	<linearGradient id="SVGID_1_" gradientUnits="userSpaceOnUse" x1="270.40195" y1="65.45172" x2="391.39355" y2="65.45172">
		<stop  offset="0" style="stop-color:#FFFFFF"/>
		<stop  offset="1" style="stop-color:#000000"/>
	</linearGradient>
	<path class="st0" d="M299.91394,7.25024c0,0-47.90218,87.36913-21.64929,110.54893
		c29.57791,26.11562,113.12891-43.61121,113.12891-43.61121L299.91394,7.25024z"/>
	<path class="st1" d="M399.50473,120.45202c0.065,1.35208,0.04861,6.06328,0.0752,15.43037c0.03143,11.07396,0,19.29651,0,21.51344
		c0,28.70029,0,57.40059,0,86.10088l-0.02676,196.84109c0,0-0.00046,0.00922-0.00046,0.00925c0,0-229.47847,0-344.21768,0V6.33343
		c99.18119-0.28366,166.45493-0.46893,179.50345-0.49487c30.48537-0.0606,28.67879,0.15509,32.63051-0.10123
		c2.7399-0.17772,5.56973-0.40862,9.58676-0.04391c5.0871,0.46186,15.89795,1.44338,23.28769,8.90411
		c5.20105,5.25103,6.50098,11.48398,7.53424,16.43836c1.40631,6.74305,1.59918,14.8982-3.42465,32.87671
		c-2.61362,9.35322-6.75861,21.78405-13.4964,35.92577c2.38141-2.04674,5.67844-4.70415,9.81738-7.52666
		c4.41611-3.01152,7.90747-4.92682,11.45364-6.87218c4.97427-2.72878,9.52884-4.92345,13.48468-6.68118
		c1.01028-0.44891,5.77924-2.56792,10.07706-4.11796c8.36569-3.01713,19.68188-7.09837,32.72467-4.9087
		c4.54089,0.76234,11.17676,1.96325,17.01682,7.19942c4.03262,3.61564,5.78082,7.44732,7.95428,12.3502
		C398.45465,100.49146,399.04263,110.84052,399.50473,120.45202z"/>
	<path class="st2" d="M429.79547,141.99478"/>
	<path class="st3" d="M21.00314,243.80246c-2.68771-75.33888-5.37544-150.67776-8.06315-226.01663
		c52.35215,58.56036,104.7043,117.1207,157.05644,175.68106c-0.117,62.17912-0.23401,124.35826-0.35101,186.5374
		C120.098,334.60367,70.55058,289.20306,21.00314,243.80246z"/>
</g>
<g id="Layer_3">
	<line class="st4" x1="78.81329" y1="153.89668" x2="376.1156" y2="153.89668"/>
	<line class="st4" x1="78.81329" y1="218.89668" x2="376.1156" y2="218.89668"/>
	<line class="st4" x1="78.81329" y1="283.8967" x2="376.1156" y2="283.8967"/>
	<line class="st4" x1="78.81329" y1="348.8967" x2="376.1156" y2="348.8967"/>
</g>
<g id="Layer_2">
	<path class="st5" d="M63.06205,73.26841l-2.58769-5.97143c-5.95794-13.77155-21.95117-20.10546-35.71342-14.15583
		c-13.78084,5.96626-20.10233,21.95842-14.14957,35.7279l2.58564,5.97661L63.06205,73.26841z"/>
	<path class="st6" d="M70.8284,105.16527L31.12926,122.3402c0,0,93.63045,216.4231,101.73003,235.14496
		c8.09959,18.72186,34.73344,25.81604,34.73344,25.81604s10.61818-26.81107,4.96051-42.99301
		C166.89558,324.12625,70.8284,105.16527,70.8284,105.16527z"/>
	<line class="st7" x1="132.85928" y1="357.48517" x2="172.55324" y2="340.3082"/>
</g>
</svg>
