<?xml version="1.0" encoding="utf-8"?>
<!-- Generator: Adobe Illustrator 22.0.1, SVG Export Plug-In . SVG Version: 6.00 Build 0)  -->
<svg version="1.1" id="Layer_1" xmlns="http://www.w3.org/2000/svg" xmlns:xlink="http://www.w3.org/1999/xlink" x="0px" y="0px"
	 viewBox="0 0 460 460" enable-background="new 0 0 460 460" xml:space="preserve">
<circle fill="none" stroke="#0000FF" stroke-width="40" stroke-miterlimit="10" cx="230" cy="230" r="210"/>
<g>
	<path fill="#0000FF" d="M248.346,243.825v45.5c0,11.67,0.15,18.55,0.459,20.65c1.525,10.5,5.654,15.75,12.383,15.75
		c1.527,0,5.346-0.58,11.467-1.75c1.525-0.465,3.818-0.7,6.879-0.7c11.617,0,17.428,3.85,17.428,11.55c0,3.271-1.92,6.07-5.754,8.4
		c-3.834,2.329-8.664,3.5-14.498,3.5c-4.908,0-12.348-0.525-22.314-1.575c-9.977-1.05-17.414-1.575-22.324-1.575
		c-7.982,0-16.876,0.471-26.694,1.4c-11.968,1.164-19.943,1.75-23.928,1.75c-12.275,0-18.41-3.965-18.41-11.9
		c0-7.7,5.246-11.55,15.737-11.55c2.465,0,6.084,0.35,10.871,1.05c4.78,0.7,8.406,1.05,10.878,1.05
		c7.403,0,11.875-7.465,13.422-22.399c0-0.93,0-11.08,0-30.45v-28.7c0-19.365,0-29.515,0-30.45c-1.548-14.7-6.17-22.05-13.881-22.05
		c-2.472,0-5.948,0.41-10.42,1.225c-4.472,0.82-7.79,1.225-9.947,1.225c-11.107,0-16.662-3.73-16.662-11.2
		c0-7.93,6.722-11.9,20.18-11.9c5.805,0,9.933,0.12,12.384,0.35c9.782,0.935,16.052,1.4,18.804,1.4c2.443,0,6.191-0.29,11.236-0.875
		c5.045-0.58,8.785-0.875,11.236-0.875c8.865,0,13.301,4.55,13.301,13.65c0,0.935-0.121,2.335-0.365,4.2
		c-0.244,1.87-0.365,3.27-0.365,4.2c-0.25,1.871-0.494,9.1-0.738,21.7C248.467,223.995,248.346,233.795,248.346,243.825z
		 M224.497,152.125c-7.037,0-13.071-1.925-18.116-5.775s-7.567-8.455-7.567-13.825c0-5.365,2.522-9.915,7.567-13.65
		c5.045-3.729,11.079-5.6,18.116-5.6c7.029,0,13.072,1.87,18.117,5.6c5.045,3.735,7.566,8.285,7.566,13.65
		c0,5.37-2.521,9.975-7.566,13.825S231.526,152.125,224.497,152.125z"/>
</g>
</svg>
