<?xml version="1.0" encoding="utf-8"?>
<!-- Generator: Adobe Illustrator 22.0.1, SVG Export Plug-In . SVG Version: 6.00 Build 0)  -->
<svg version="1.1" id="Layer_1" xmlns="http://www.w3.org/2000/svg" xmlns:xlink="http://www.w3.org/1999/xlink" x="0px" y="0px"
	 viewBox="0 0 204.1 204.1" style="enable-background:new 0 0 204.1 204.1;" xml:space="preserve">
<style type="text/css">
	.st0{fill:#2FA6C1;}
	.st1{fill:#4EB5D1;}
	.st2{fill:#69DAF4;}
</style>
<g>
	<g>
		<path class="st0" d="M27.1,77.1c0,59.3,59.4,113.6,75.1,127c0.1-0.1,0.1-0.1,0.2-0.2V103.1h-0.1c-13.4,0-24.4-11.2-24.4-25
			s10.9-25,24.4-25h0.1V0h-0.1C60.8,0,27.1,34.6,27.1,77.1z"/>
		<path class="st1" d="M126.1,78.3c0,13.7-10.8,24.9-24.3,25v100.8c16.3-14.2,75.1-70.5,75.1-126.8c0-42.5-33.6-77-75.1-77.1v53.1
			C115.3,53.3,126.1,64.5,126.1,78.3z"/>
		<g>
			<g>
				<path class="st2" d="M101.9,103.2C89.6,102.6,78,91.8,78,78.1c0-13.8,11-25.4,24.5-25c9.2,0.3,18,6.1,22.2,16.3l22.4-11.6
					c-7.8-17.4-25.4-30.7-45.3-30.7c-27.1,0-49.1,23.9-49.1,51.7s22,51.7,49.1,51.7v-0.4L101.9,103.2L101.9,103.2z"/>
			</g>
		</g>
	</g>
</g>
</svg>
