<?xml version="1.0" encoding="utf-8"?>
<!-- Generator: Adobe Illustrator 22.0.1, SVG Export Plug-In . SVG Version: 6.00 Build 0)  -->
<svg version="1.1" id="Layer_1" xmlns="http://www.w3.org/2000/svg" xmlns:xlink="http://www.w3.org/1999/xlink" x="0px" y="0px"
	 viewBox="0 0 149.9 204.1" style="enable-background:new 0 0 149.9 204.1;" xml:space="preserve">
<style type="text/css">
	.st0{fill:#2FA6C1;}
	.st1{fill:#4EB5D1;}
	.st2{fill:#69DAF4;}
</style>
<g>
	<g>
		<path class="st0" d="M0,77.1c0,59.3,59.4,113.6,75.1,127c0.1-0.1,0.1-0.1,0.2-0.2V103.1c0,0-0.1,0-0.1,0
			c-13.4,0-24.4-11.2-24.4-25c0-13.8,10.9-25,24.4-25c0,0,0.1,0,0.1,0V0c0,0-0.1,0-0.1,0C33.7,0,0,34.6,0,77.1z"/>
		<path class="st1" d="M99,78.3c0,13.7-10.8,24.9-24.3,25v100.8c16.3-14.2,75.1-70.5,75.1-126.8c0-42.5-33.6-77-75.1-77.1v53.1
			C88.2,53.3,99,64.5,99,78.3z"/>
		<g>
			<g>
				<path class="st2" d="M74.8,103.2c-12.3-0.6-23.9-11.4-23.9-25.1c0-13.8,11-25.4,24.5-25c9.2,0.3,18,6.1,22.2,16.3L120,57.8
					c-7.8-17.4-25.4-30.7-45.3-30.7c-27.1,0-49.1,23.9-49.1,51.7c0,27.8,22,51.7,49.1,51.7l0-0.4L74.8,103.2L74.8,103.2z"/>
			</g>
		</g>
	</g>
</g>
</svg>
