<?xml version="1.0" encoding="utf-8"?>
<!-- Generator: Adobe Illustrator 22.0.1, SVG Export Plug-In . SVG Version: 6.00 Build 0)  -->
<svg version="1.1" id="Layer_1" xmlns="http://www.w3.org/2000/svg" xmlns:xlink="http://www.w3.org/1999/xlink" x="0px" y="0px"
	 viewBox="0 0 271.8 197.8" style="enable-background:new 0 0 271.8 197.8;" xml:space="preserve">
<style type="text/css">
	.st0{fill:#FCDF00;}
	.st1{fill:url(#SVGID_1_);}
	.st2{fill:url(#SVGID_2_);}
	.st3{fill:url(#SVGID_3_);}
	.st4{fill:url(#SVGID_4_);}
	.st5{fill:url(#SVGID_5_);}
	.st6{fill:#341000;}
	.st7{fill:url(#SVGID_6_);}
	.st8{fill:url(#SVGID_7_);}
	.st9{fill:url(#SVGID_8_);}
	.st10{fill:url(#SVGID_9_);}
	.st11{fill:url(#SVGID_10_);}
	.st12{fill:url(#SVGID_11_);}
	.st13{fill:url(#SVGID_12_);}
	.st14{fill:url(#SVGID_13_);}
	.st15{fill:url(#SVGID_14_);}
	.st16{fill:url(#SVGID_15_);}
	.st17{fill:url(#SVGID_16_);}
	.st18{fill:url(#SVGID_17_);}
	.st19{fill:url(#SVGID_18_);}
	.st20{fill:url(#SVGID_19_);}
</style>
<g>
	<path d="M145.3,96.8c-1-1.7-0.9-3.5,0.3-5.2c1.1-1.8,2.7-3.2,4.6-4.3c1.9-1.1,3.6-1.7,5.3-1.8c2.6-0.2,4.5,0.7,5.6,2.7
		c1.1,1.9,0.9,3.9-0.5,6c-1,1.5-2.4,2.9-4.4,4c-2.9,1.6-5.3,2.1-7.3,1.5C147.4,99.3,146.1,98.4,145.3,96.8z M170,88.3l-4.6-8
		c7.1-4,13.3-6,18.7-5.7c4.6,0.3,10.9,2.4,18.9,6.3c2.2,1.1,4,2,5.5,2.8c1.5,0.7,2.7,1.3,3.6,1.6c5.8,2.3,10.8,2.3,15-0.1
		c4.1-2.3,6.3-6.3,6.8-11.9c0.5-5.5-1-11.3-4.5-17.5c-2.7-4.8-6.3-9-10.6-12.6c-4.3-3.6-9.3-6.6-14.9-9l9.9-5.6
		c2.4,1.6,4.5,3.1,6.4,4.4c1.9,1.4,3.6,2.7,5,4.1c5.1,4.5,9.2,9.4,12.2,14.7c4.6,8,6.6,16,6.1,23.9c-0.6,8.7-4.3,15-11.2,18.9
		c-4.3,2.4-8.7,3.3-13.2,2.6c-4.5-0.6-10.3-2.8-17.3-6.8c-7.7-4.4-13.5-6.6-17.4-6.6C180.5,83.6,175.7,85.1,170,88.3z"/>
</g>
<g>
	<path d="M50.1,162.1l-2.6-2.1c-5.5-4.2-9.4-11.1-10.6-21c-0.9-8.8-2.4-14.6-6.5-18.6c-4.7-4.5-10.7-4.5-16.4,1.2
		c-3.2,3.3-5.6,8.1-6,12.1l-8-3.3c0.7-5.2,4.2-11.9,8.9-16.8c10.1-10.7,21.3-9.2,28.4-2.5c6.3,6,7.5,13.8,8.6,23.3
		c0.9,8.7,3.6,14,8.6,18.3l2.5,2.2L50.1,162.1z M61.1,176.5c-3.4-3.3-3.6-7.9-0.6-11.1s7.6-3.2,11,0.1c3.2,3.1,3.7,7.6,0.5,11
		C69,179.7,64.3,179.6,61.1,176.5z"/>
</g>
<g>
	<path d="M132,63c0.7,0.7,1.3,1.5,1.6,2.3c0.4,0.9,0.6,1.8,0.6,2.7c0,0.9-0.1,1.8-0.4,2.7c-0.3,0.9-0.8,1.7-1.5,2.4
		s-1.5,1.3-2.3,1.7c-0.9,0.4-1.8,0.6-2.7,0.6c-0.9,0-1.8-0.1-2.7-0.4c-0.9-0.3-1.7-0.8-2.4-1.5c-0.7-0.7-1.3-1.5-1.7-2.3
		c-0.4-0.9-0.6-1.8-0.6-2.7c0-0.9,0.1-1.8,0.4-2.7c0.3-0.9,0.8-1.7,1.5-2.4c0.7-0.7,1.5-1.3,2.3-1.6c0.9-0.4,1.7-0.6,2.7-0.6
		c0.9,0,1.8,0.1,2.7,0.4C130.4,61.8,131.3,62.3,132,63z M136,55.7c2.6-2.8,5.2-5,7.7-6.7c2.6-1.7,5.1-3.1,7.5-4.2
		c2.4-1.1,4.9-2,7.2-2.7c2.4-0.7,4.7-1.6,7-2.5c2.3-0.9,4.5-2,6.7-3.3c2.2-1.3,4.3-3.1,6.4-5.3c1.9-2.1,3.4-4.1,4.3-6.1
		s1.4-4,1.4-5.9c0-1.9-0.4-3.7-1.1-5.4c-0.8-1.7-1.9-3.2-3.4-4.6c-1.3-1.2-2.6-2.2-4-2.9c-1.4-0.7-2.7-1.2-4-1.4
		c-1.3-0.2-2.5-0.1-3.7,0.2c-1.2,0.3-2.1,0.9-3,1.8c-0.9,0.9-1.4,1.8-1.6,2.7c-0.2,0.9-0.4,1.7-0.4,2.5c-0.1,0.8-0.2,1.6-0.4,2.4
		c-0.2,0.8-0.6,1.6-1.3,2.3c-1.3,1.3-2.6,2.1-4.1,2.2c-1.5,0.1-2.7-0.3-3.8-1.3c-0.7-0.7-1.2-1.5-1.6-2.4c-0.3-0.9-0.4-1.9-0.3-3
		c0.1-1.1,0.4-2.1,1-3.2c0.5-1.1,1.3-2.1,2.2-3.1c2.4-2.6,5-4.2,7.7-5.1s5.5-1,8.2-0.6s5.3,1.3,7.9,2.7c2.5,1.4,4.8,3,6.7,4.8
		c2.6,2.4,4.6,5,6.2,7.8c1.5,2.8,2.5,5.5,2.9,8.3s0.1,5.5-0.8,8.2c-0.9,2.7-2.4,5.2-4.6,7.6c-2.2,2.3-4.6,4-7.3,5.2
		c-2.7,1.1-5.6,2-8.6,2.5c-3,0.6-6.1,1-9.2,1.3c-3.2,0.3-6.3,0.7-9.3,1.3c-3,0.6-5.9,1.5-8.7,2.7c-2.8,1.2-5.3,3-7.5,5.3L136,55.7z"
		/>
</g>
<g>
	<path d="M195.2,158.3c0.2,1.3,0,2.4-0.8,3.5c-0.8,1.1-1.8,1.7-3,2c-1.3,0.2-2.4,0-3.5-0.8c-1.1-0.8-1.7-1.8-2-3
		c-0.2-1.3,0-2.4,0.8-3.5c0.8-1.1,1.8-1.7,3-2c1.3-0.2,2.4,0,3.5,0.8C194.3,156,194.9,157,195.2,158.3z M203.4,162.2
		c2.7,1.1,5,2.6,7,4.5c2,1.9,3.8,4,5.5,6.2c1.7,2.2,3.4,4.5,5,6.7c1.7,2.3,3.5,4.3,5.5,6c3,2.5,6,4.1,9.2,4.9
		c3.2,0.7,6.7,0.8,10.4,0.1c4-0.7,7-2.4,9-5c2-2.6,2.6-5.9,1.9-9.8c-0.4-2.2-1.2-4.3-2.6-6.4c-1.3-2.1-3-3.9-4.9-5.5
		c-2-1.6-4.1-2.7-6.5-3.5c-2.4-0.8-4.8-1-7.3-0.5c-1.2,0.2-2.4,0.5-3.6,1c-1.2,0.4-2.3,1-3.2,1.8c-0.9,0.8-1.6,1.7-2.1,2.8
		c-0.5,1.1-0.6,2.5-0.3,4.1c0.3,1.8,1,3.5,2.2,5.1c1.2,1.7,2.7,3,4.6,4.1l-0.5,1c-1.9-0.9-3.6-2.2-5.1-4c-1.5-1.8-2.4-3.9-2.8-6.1
		c-0.6-3.5-0.1-6.5,1.6-8.9c1.7-2.4,4.3-3.9,7.8-4.5c2.8-0.5,5.5-0.2,8.2,0.9c2.7,1.1,5.2,2.7,7.4,4.7c2.2,2.1,4.1,4.5,5.7,7.2
		c1.6,2.7,2.6,5.5,3.1,8.4c0.9,5,0.4,9.4-1.6,13.2c-1.9,3.8-5.6,6.1-10.8,7c-2.4,0.4-4.8,0.3-7.2-0.4c-2.3-0.7-4.6-1.8-6.8-3.4
		c-2.2-1.5-4.2-3.3-6.1-5.4c-1.9-2-3.7-4.2-5.3-6.4c-1.2-1.6-2.4-3.4-3.7-5.4c-1.3-2-2.8-3.9-4.3-5.7c-1.5-1.8-3.1-3.4-4.8-4.8
		c-1.7-1.4-3.3-2.3-5-2.8L203.4,162.2z"/>
</g>
<g>
	<path d="M36.4,92.8c0.9,2,2.7,3.2,5.2,3.7c-0.1-0.3-0.3-0.7-0.5-1.2c-0.5-1.1-0.5-2.2,0-3.3c0.5-1.1,1.3-2,2.6-2.5
		c3.4-1.6,5.9-0.7,7.5,2.7c1,2.2,1,4.5-0.1,6.9c-1.1,2.3-2.9,4.1-5.6,5.3c-3.4,1.6-6.7,1.7-10,0.5c-3.3-1.3-5.7-3.7-7.4-7.2
		c-3-6.5-2.7-13.1,0.9-19.9c3.6-6.8,9.7-12.2,18.4-16.2c8.6-4,16.4-5.2,23.5-3.6C77.9,59.6,83,63.7,86,70.3
		c3.8,8.3,2.6,16.4-3.7,24.4c-1.1,1.3-2.5,3-4.2,4.9c-3.7,4.1-5.9,7.4-6.8,9.9c-0.8,2.6-0.6,5.3,0.8,8.2c1,2.2,1.5,3.7,1.5,4.7
		c-0.1,1.4-1.1,2.6-2.9,3.5c-3.3,1.5-5.8,0.2-7.7-3.8c-1.7-3.7-2.3-7.3-1.6-10.8c0.9-4.2,3.6-9.5,8.2-15.8c4.2-5.6,6.7-9.7,7.4-12.3
		c0.8-2.6,0.4-5.5-1.1-8.7c-2-4.3-5.3-6.9-10-7.9c-4.7-1-9.9-0.1-15.6,2.5c-5.8,2.7-10.1,6.3-12.7,10.9C35,84.6,34.6,88.9,36.4,92.8
		z M81.1,145.5c-2,0.9-4.1,1-6.2,0.2c-2.1-0.8-3.6-2.2-4.5-4.2c-0.9-2-1-4.1-0.2-6.2c0.8-2.1,2.2-3.6,4.2-4.5c2-0.9,4-1,6.1-0.2
		c2.1,0.8,3.6,2.2,4.5,4.2c0.9,2,1,4.1,0.3,6.1C84.5,143.1,83.1,144.6,81.1,145.5z"/>
</g>
<g>
	<path d="M101.3,72.7c-3.7-1.2-14.3-6.6-15.4-13.2c-0.7-4.4,1.3-8,7.1-15.3c2.5-3,10.1-10.9,9-17.6c-0.9-5.3-4.4-7.7-9.4-6.9
		c-7.2,1.2-10.9,8.7-11.8,8.8c-0.8,0.1-4.1-1-4.4-3.3c-0.5-3.2,7.4-9.6,10.2-10c10-1.8,20,6.3,21.4,15c0.7,4-0.9,7.3-3.4,10.8
		c-3,3.7-12.4,11.9-11.3,18.7c0.9,5.7,4,8,8.9,10.5L101.3,72.7z M96.4,92.5c-0.5-3,1.5-5.8,4.4-6.3c3-0.5,5.8,1.5,6.3,4.5
		c0.5,3.3-1.5,5.8-4.5,6.3C99.3,97.6,96.9,95.6,96.4,92.5z"/>
</g>
<g>
	<g>
		<path class="st0" d="M196.1,124.6c-0.3-1,1.3-4.3,2.8-6.5c2.6-3.5,4.2-5,6.2-5.6c1.8-0.5,4.2-0.2,6.9,1c2.4,1,4.7,2,6.9,3.1
			c2,0.9,3.8,1.8,5.7,2.6c6.6,2.7,11.8,4.3,16.4,4.8c4.2,0.5,8.1,0.1,12.5-1.1c3.7-1,7.2-3.2,9.4-5.9c3-3.6,3.9-8.1,2.5-13.1
			c-1.4-4.9-5.2-11.4-9.1-13.5c-2.2-1.2-4.1-1.8-7.5-0.9c-1,0.3-1.7,0.5-2.1,0.7c-0.4,0.2-0.8,0.3-0.8,0.2c0,0,0,0,0,0
			c-0.1-0.2,0.3-0.4,1-0.9c3.3-1.7,6.4-2.6,9-3.3c0.3-0.1,0.6-0.2,0.9-0.2c0.1,0,0.2-0.1,0.3-0.1c1.1-0.3,1.5-0.4,2.6,0.7
			c2.2,2.1,7.6,8.3,10.6,19.1c2,7.3,1.5,13.9-1.5,19c-2.5,4.2-6.6,7.3-11.5,8.6c-5.1,1.4-9.9,1.5-15,0.1c-4.7-1.2-9.5-3.6-15.1-6.3
			c-3.3-1.6-7-3.4-11.1-5.2l-1.1-0.5c-6.2-2.6-9-3.8-11.7-3c-1.6,0.5-3.6,1.3-5.7,3.9c-0.7,0.9-0.9,1.2-1.1,1.7
			c-0.1,0.1-0.1,0.3-0.2,0.4c0,0.1-0.1,0.2-0.1,0.3C196.2,124.7,196.2,124.7,196.1,124.6 M172.7,128.9c0-0.1,0.1-0.2,0.3-0.4
			c0.1-0.1,0.2-0.1,0.2-0.2c2.4-1.9,4.8-4.8,5.6-6.2c0.1-0.2,0.2-0.4,0.3-0.5c0.1-0.2,0.3-0.5,0.3-0.5c0.5-0.1,2,0.9,3.9,2.5
			c1.8,1.6,3.2,3.1,3.3,3.6c0.3,0.9-2.2,5.2-4.3,6.7c-1.2,0.9-1.3,0.9-2.3,0.4c-2.1-1.1-5.6-3.7-6.8-4.9
			C172.9,129.1,172.7,129,172.7,128.9"/>
		
			<linearGradient id="SVGID_1_" gradientUnits="userSpaceOnUse" x1="-106.9667" y1="-331.5107" x2="-105.9667" y2="-331.5107" gradientTransform="matrix(0.7664 2.7496 2.7496 -0.7664 1245.2749 126.789)">
			<stop  offset="0" style="stop-color:#FCDF00"/>
			<stop  offset="0.934" style="stop-color:#FCDF00"/>
			<stop  offset="1" style="stop-color:#FCDF00"/>
		</linearGradient>
		<path class="st1" d="M258.2,88.6c0-1.9,0.1-2.2,0.2-2.9c-0.4,0-0.8,0.1-1.4,0.3c-2.7,0.8-6.2,1.6-9.9,3.6c-0.8,0.5-1.1,0.7-1.1,1
			C250.6,87.9,255.8,87.4,258.2,88.6"/>
		
			<linearGradient id="SVGID_2_" gradientUnits="userSpaceOnUse" x1="-93.5591" y1="-294.019" x2="-92.5591" y2="-294.019" gradientTransform="matrix(-65.672 18.3049 18.3049 65.672 -497.5182 21126.543)">
			<stop  offset="0" style="stop-color:#FCDF00"/>
			<stop  offset="0.707" style="stop-color:#663411"/>
			<stop  offset="0.799" style="stop-color:#663411"/>
			<stop  offset="1" style="stop-color:#FCDF00"/>
		</linearGradient>
		<path class="st2" d="M207.3,115.5c4,0.5,14,5.4,25.1,10.2c9.3,4,17.8,5.6,27.6,0.4c16.4-8.7,6.7-31.3-1.8-37.5
			c-2.3-1.2-7.5-0.7-12.2,1.9c0.1,0.2,0.9-0.2,3.1-0.9c3.3-0.9,5.2-0.4,7.4,0.9c3.1,1.7,7.4,7.4,9.1,13.4
			c3.1,11.2-5.8,17.2-11.9,18.9c-8.1,2.3-15.5,1.9-28.9-3.6c-4.2-1.8-8.1-3.9-12.6-5.7c-2.9-1.2-5.2-1.5-6.9-1
			c-2.2,0.6-3.9,2.3-6.3,5.6c-1.4,2-3.1,5.4-2.8,6.5c0,0.1,0.1,0.2,0.1,0.2C197.6,119.5,203.1,115,207.3,115.5"/>
		
			<linearGradient id="SVGID_3_" gradientUnits="userSpaceOnUse" x1="-95.4442" y1="-294.0635" x2="-94.4442" y2="-294.0635" gradientTransform="matrix(65.577 -18.2785 -18.2785 -65.577 1085.8005 -20903.1914)">
			<stop  offset="0" style="stop-color:#663411"/>
			<stop  offset="8.700000e-02" style="stop-color:#FCDF00"/>
			<stop  offset="0.28" style="stop-color:#FCDF00"/>
			<stop  offset="0.818" style="stop-color:#663411"/>
			<stop  offset="1" style="stop-color:#663411"/>
		</linearGradient>
		<path class="st3" d="M257.5,133.4c8.9-2.5,17.6-11.4,13-27.7c-2.6-9.5-7.4-15.9-10.6-19.1c-0.7-0.7-1.1-0.9-1.5-0.9
			c-0.1,0.7-0.2,1-0.2,2.9c8.5,6.2,18.3,28.8,1.8,37.5c-9.8,5.2-18.3,3.6-27.6-0.4c-11.1-4.8-21.1-9.7-25.1-10.2
			c-4.2-0.6-9.7,4-11.1,9.3c0.1,0,0.2-0.4,0.4-0.7c0.3-0.5,0.4-0.8,1.1-1.6c2-2.4,3.9-3.3,5.7-3.8c2.8-0.8,5.7,0.5,12.8,3.5
			C234.2,129.8,243.1,137.4,257.5,133.4"/>
		
			<linearGradient id="SVGID_4_" gradientUnits="userSpaceOnUse" x1="-98.3933" y1="-296.8965" x2="-97.3933" y2="-296.8965" gradientTransform="matrix(9.7839 11.5986 11.5986 -9.7839 4580.5542 -1640.7112)">
			<stop  offset="0" style="stop-color:#FCDF00"/>
			<stop  offset="0.326" style="stop-color:#FCDF00"/>
			<stop  offset="0.963" style="stop-color:#663411"/>
			<stop  offset="1" style="stop-color:#663411"/>
		</linearGradient>
		<path class="st4" d="M179.4,120.9C179.4,120.9,179.4,120.9,179.4,120.9c-0.1,0-0.4,0.6-0.6,1.1c-0.8,1.4-3.2,4.3-5.6,6.2
			c-0.3,0.3-0.5,0.4-0.5,0.6c0.7,0,6.7-1,7.6-1.2C180,124.2,179.6,121.4,179.4,120.9"/>
		
			<linearGradient id="SVGID_5_" gradientUnits="userSpaceOnUse" x1="-96.3257" y1="-298.4298" x2="-95.3257" y2="-298.4298" gradientTransform="matrix(2.4281 15.1996 15.1996 -2.4281 4951.1665 853.0697)">
			<stop  offset="0" style="stop-color:#FCDF00"/>
			<stop  offset="0.476" style="stop-color:#FCDF00"/>
			<stop  offset="0.89" style="stop-color:#663411"/>
			<stop  offset="1" style="stop-color:#663411"/>
		</linearGradient>
		<path class="st5" d="M180.3,127.6c0.4,0,6.2-0.5,6.4-0.5c-0.3-1.2-6.2-6.5-7.3-6.2C179.6,121.4,180,124.2,180.3,127.6"/>
		<path class="st6" d="M182.3,133.9c2.1-1.5,4.6-5.8,4.4-6.8c0,0,0,0,0,0c0,0,0,0,0,0c-0.2,0-6,0.5-6.4,0.5c0.4,3.8,0.7,6.5,0.7,7
			c0,0,0,0,0,0C181.3,134.6,181.6,134.4,182.3,133.9"/>
		
			<linearGradient id="SVGID_6_" gradientUnits="userSpaceOnUse" x1="-100.2048" y1="-292.686" x2="-99.2048" y2="-292.686" gradientTransform="matrix(12.5307 4.850415e-02 4.850323e-02 -12.5307 1442.0065 -3531.6108)">
			<stop  offset="0" style="stop-color:#FCDF00"/>
			<stop  offset="0.157" style="stop-color:#FCDF00"/>
			<stop  offset="0.725" style="stop-color:#663411"/>
			<stop  offset="1" style="stop-color:#663411"/>
		</linearGradient>
		<path class="st7" d="M172.6,128.8C172.6,128.8,172.6,128.8,172.6,128.8c0,0.1,0.1,0.3,0.5,0.6c1.1,1.2,4.6,3.8,6.8,4.9
			c0.4,0.2,0.7,0.3,1,0.3c0.1-0.5-0.2-3.3-0.7-7C179.3,127.8,173.3,128.8,172.6,128.8"/>
		
			<radialGradient id="SVGID_7_" cx="-100.2791" cy="-283.596" r="1" gradientTransform="matrix(1.6534 5.932 -5.932 1.6534 -1248.1342 1177.4512)" gradientUnits="userSpaceOnUse">
			<stop  offset="0" style="stop-color:#FFFFFF;stop-opacity:0.85"/>
			<stop  offset="0.466" style="stop-color:#FFFFFF;stop-opacity:0.5"/>
			<stop  offset="1" style="stop-color:#FFFFFF;stop-opacity:0"/>
		</radialGradient>
		<path class="st8" d="M266.7,100.6l-2.1,0.6c0.4,0.9,0.7,1.8,0.9,2.7c1.8,6.4-0.4,11.1-3.7,14.2l4.4,2.5
			C270.1,114.9,269.4,107.2,266.7,100.6"/>
		
			<linearGradient id="SVGID_8_" gradientUnits="userSpaceOnUse" x1="-90.9668" y1="-300.6949" x2="-89.9668" y2="-300.6949" gradientTransform="matrix(-6.4212 7.3016 7.3016 6.4212 1813.0989 2711.6934)">
			<stop  offset="0" style="stop-color:#FCDF00;stop-opacity:0"/>
			<stop  offset="0.769" style="stop-color:#FCDF00;stop-opacity:0"/>
			<stop  offset="0.94" style="stop-color:#663411"/>
			<stop  offset="1" style="stop-color:#663411"/>
		</linearGradient>
		<path class="st9" d="M203.5,116.2l-2.1-1.2c-0.8,0.8-1.6,1.8-2.5,3.1c-1.4,2-3.1,5.4-2.8,6.5c0,0.1,0.1,0.2,0.1,0.2
			C197.2,121.1,200.3,117.7,203.5,116.2"/>
		
			<linearGradient id="SVGID_9_" gradientUnits="userSpaceOnUse" x1="-97.0665" y1="-296.9584" x2="-96.0665" y2="-296.9584" gradientTransform="matrix(8.7651 16.6676 16.6676 -8.7651 6058.791 -900.3011)">
			<stop  offset="0" style="stop-color:#FCDF00"/>
			<stop  offset="6.100000e-02" style="stop-color:#FCDF00"/>
			<stop  offset="0.267" style="stop-color:#663411;stop-opacity:0"/>
			<stop  offset="1" style="stop-color:#663411;stop-opacity:0"/>
		</linearGradient>
		<path class="st10" d="M259.9,86.6c-0.7-0.7-1.1-0.9-1.5-0.9c-0.1,0.7-0.2,1-0.2,2.9c3.4,2.5,7,7.6,9.1,13.4l1.9-0.5
			C266.4,94.3,262.7,89.3,259.9,86.6"/>
		
			<radialGradient id="SVGID_10_" cx="-98.4592" cy="-286.8802" r="1" gradientTransform="matrix(2.4136 8.6593 -8.6593 2.4136 -1979.8975 1663.9922)" gradientUnits="userSpaceOnUse">
			<stop  offset="0" style="stop-color:#341000"/>
			<stop  offset="0.541" style="stop-color:#341000;stop-opacity:0.5"/>
			<stop  offset="1" style="stop-color:#341000;stop-opacity:0"/>
		</radialGradient>
		<path class="st11" d="M270.5,105.7c-0.4-1.5-0.9-2.9-1.4-4.3l-1.9,0.5c3.1,8.7,2.6,18.9-7.2,24.1c-0.1,0.1-0.2,0.1-0.3,0.2
			l1.6,5.7C268.6,128.2,274.4,119.7,270.5,105.7"/>
		
			<radialGradient id="SVGID_11_" cx="-108.805" cy="-268.2099" r="1" gradientTransform="matrix(0.6679 2.3962 -2.3962 0.6679 -313.3514 525.4926)" gradientUnits="userSpaceOnUse">
			<stop  offset="0" style="stop-color:#FFFFFF;stop-opacity:0.85"/>
			<stop  offset="0.466" style="stop-color:#FFFFFF;stop-opacity:0.5"/>
			<stop  offset="1" style="stop-color:#FFFFFF;stop-opacity:0"/>
		</radialGradient>
		<path class="st12" d="M258.2,88.6c0-1.9,0.1-2.2,0.2-2.9c-0.4,0-0.8,0.1-1.4,0.3c-2.3,0.6-5.1,1.3-8.1,2.7l0.1,0.5
			C252.7,87.8,256.3,87.7,258.2,88.6"/>
		
			<linearGradient id="SVGID_12_" gradientUnits="userSpaceOnUse" x1="-73.1083" y1="-300.4591" x2="-72.1083" y2="-300.4591" gradientTransform="matrix(-2.8914 0.8059 0.8059 2.8914 279.6271 1016.8619)">
			<stop  offset="0" style="stop-color:#FCDF00;stop-opacity:0"/>
			<stop  offset="0.696" style="stop-color:#FCDF00;stop-opacity:0"/>
			<stop  offset="1" style="stop-color:#663411"/>
		</linearGradient>
		<path class="st13" d="M248.9,88.7c-0.6,0.3-1.2,0.6-1.8,0.9c-0.8,0.5-1.1,0.7-1.1,1c1-0.6,2-1,3-1.4L248.9,88.7"/>
		
			<linearGradient id="SVGID_13_" gradientUnits="userSpaceOnUse" x1="-93.5591" y1="-294.1913" x2="-92.5591" y2="-294.1913" gradientTransform="matrix(-65.672 18.3049 18.3049 65.672 -497.5182 21126.543)">
			<stop  offset="0" style="stop-color:#FCDF00"/>
			<stop  offset="0.707" style="stop-color:#663411"/>
			<stop  offset="0.799" style="stop-color:#663411"/>
			<stop  offset="1" style="stop-color:#FCDF00"/>
		</linearGradient>
		<path class="st14" d="M256.5,90.5c2.6,1.4,6.1,5.7,8.1,10.7l2.1-0.6c-2.1-5.2-5.4-9.7-8.5-12c-1.9-1-5.8-0.8-9.7,0.7l0.1,0.4
			c0.1,0,0.3-0.1,0.4-0.1C252.4,88.7,254.3,89.3,256.5,90.5"/>
		
			<linearGradient id="SVGID_14_" gradientUnits="userSpaceOnUse" x1="-89.3721" y1="-295.54" x2="-88.3721" y2="-295.54" gradientTransform="matrix(-12.06 3.3615 3.3615 12.06 173.6117 3951.626)">
			<stop  offset="0" style="stop-color:#FCDF00;stop-opacity:0"/>
			<stop  offset="0.791" style="stop-color:#FCDF00;stop-opacity:0"/>
			<stop  offset="0.975" style="stop-color:#663411"/>
			<stop  offset="1" style="stop-color:#663411"/>
		</linearGradient>
		<path class="st15" d="M246,90.5c0.1,0.2,0.8-0.2,2.6-0.7l-0.1-0.4C247.6,89.7,246.8,90.1,246,90.5"/>
		
			<radialGradient id="SVGID_15_" cx="-106.266" cy="-315.2548" r="1" gradientTransform="matrix(0.812 2.9133 2.9133 -0.812 1183.1927 176.5167)" gradientUnits="userSpaceOnUse">
			<stop  offset="0" style="stop-color:#FFFFFF;stop-opacity:0.85"/>
			<stop  offset="0.48" style="stop-color:#FFFFFF;stop-opacity:0.5"/>
			<stop  offset="1" style="stop-color:#FFFFFF;stop-opacity:0"/>
		</radialGradient>
		<path class="st16" d="M179.4,120.9C179.4,120.9,179.4,120.9,179.4,120.9c-0.1,0-0.4,0.6-0.6,1.1c-0.8,1.4-3.2,4.3-5.6,6.2
			c-0.3,0.3-0.5,0.4-0.5,0.6c0.7,0,6.7-1,7.6-1.2C180,124.2,179.6,121.4,179.4,120.9"/>
		
			<radialGradient id="SVGID_16_" cx="-89.5951" cy="-340.7242" r="1" gradientTransform="matrix(-13.5913 -5.7523 0.1013 -0.2395 -960.1095 -475.4343)" gradientUnits="userSpaceOnUse">
			<stop  offset="0" style="stop-color:#341000;stop-opacity:0.5"/>
			<stop  offset="1" style="stop-color:#341000;stop-opacity:0"/>
		</radialGradient>
		<path class="st17" d="M237.2,123.3c-3.6-0.8-7.6-2.1-12.5-4.1c-4.2-1.8-8.1-3.9-12.6-5.7c-0.9-0.4-1.8-0.7-2.6-0.9l-1.7,3
			c4.3,0.8,13.9,5.5,24.6,10.1c1.2,0.5,2.5,1,3.7,1.5L237.2,123.3"/>
		
			<radialGradient id="SVGID_17_" cx="-89.5852" cy="-313.2621" r="1" gradientTransform="matrix(-13.5248 -5.8007 0.2559 -0.5967 -908.5474 -584.9296)" gradientUnits="userSpaceOnUse">
			<stop  offset="0" style="stop-color:#FFFFFF;stop-opacity:0.7"/>
			<stop  offset="0.936" style="stop-color:#FFFFFF;stop-opacity:0"/>
			<stop  offset="1" style="stop-color:#FFFFFF;stop-opacity:0"/>
		</radialGradient>
		<path class="st18" d="M234.9,130.8l1.1-3.6c-1.2-0.4-2.5-0.9-3.7-1.5c-10.5-4.5-20-9.1-24.4-10.1l-0.5,3.1
			c2.1,0.5,4.7,1.7,8.8,3.4C223.7,125.3,229.6,128.5,234.9,130.8"/>
		
			<radialGradient id="SVGID_18_" cx="-86.9646" cy="-393.238" r="1" gradientTransform="matrix(-8.866 1.4536 4.626928e-02 0.2821 -574.1821 365.2989)" gradientUnits="userSpaceOnUse">
			<stop  offset="0" style="stop-color:#FFFFFF;stop-opacity:0.7"/>
			<stop  offset="0.936" style="stop-color:#FFFFFF;stop-opacity:0"/>
			<stop  offset="1" style="stop-color:#FFFFFF;stop-opacity:0"/>
		</radialGradient>
		<path class="st19" d="M179.4,120.9C179.4,120.9,179.4,120.9,179.4,120.9c-0.1,0-0.4,0.6-0.6,1.1c-0.8,1.4-3.2,4.3-5.6,6.2
			c-0.3,0.3-0.5,0.4-0.5,0.6c0.7,0,6.7-1,7.6-1.2C180,124.2,179.6,121.4,179.4,120.9"/>
		
			<radialGradient id="SVGID_19_" cx="-99.205" cy="-536.1031" r="1" gradientTransform="matrix(0.821 5.6914 0.279 -4.022503e-02 410.9941 668.3723)" gradientUnits="userSpaceOnUse">
			<stop  offset="0" style="stop-color:#341000;stop-opacity:0.5"/>
			<stop  offset="1" style="stop-color:#341000;stop-opacity:0"/>
		</radialGradient>
		<path class="st20" d="M180.3,127.6c0.4,0,6.2-0.5,6.4-0.5c-0.3-1.2-6.2-6.5-7.3-6.2C179.6,121.4,180,124.2,180.3,127.6"/>
	</g>
</g>
</svg>
