<?xml version="1.0" encoding="utf-8"?>
<!-- Generator: Adobe Illustrator 22.0.1, SVG Export Plug-In . SVG Version: 6.00 Build 0)  -->
<svg version="1.1" id="Layer_1" xmlns="http://www.w3.org/2000/svg" xmlns:xlink="http://www.w3.org/1999/xlink" x="0px" y="0px"
	 viewBox="0 0 307.29 364.74" enable-background="new 0 0 307.29 364.74" xml:space="preserve">
<rect x="1.61" y="1.61" fill="#FFFFFF" stroke="#000000" stroke-width="3.2107" stroke-linecap="round" stroke-linejoin="round" stroke-miterlimit="10" width="304.08" height="361.53"/>
<path fill="#FFFFFF" stroke="#FF0000" stroke-width="3.3469" stroke-miterlimit="10" d="M287.7,358.82H19.59
	c-6.16,0-11.16-4.99-11.16-11.16V122.85c0-6.16,4.99-11.16,11.16-11.16h268.1c6.16,0,11.16,4.99,11.16,11.16v224.81
	C298.85,353.82,293.86,358.82,287.7,358.82z"/>
<path fill="#FF0000" stroke="#FF0000" stroke-miterlimit="10" d="M90.09,181.72H8.44v-60.03c0-5.52,4.48-10,10-10h71.66V181.72z"/>
<path fill="#FF0000" stroke="#FF0000" stroke-width="0.9303" stroke-miterlimit="10" d="M276.66,63.41H26.24c-11,0-20-9-20-20v-8.28
	c0-11,9-20,20-20h250.42c11,0,20,9,20,20v8.28C296.66,54.41,287.66,63.41,276.66,63.41z"/>
<path fill="none" stroke="#FF0000" stroke-width="3" stroke-miterlimit="10" d="M278.85,111.69H28.44c-11,0-20-9-20-20v-8.28
	c0-11,9-20,20-20h250.42c11,0,20,9,20,20v8.28C298.85,102.69,289.85,111.69,278.85,111.69z"/>
<text transform="matrix(1 0 0 1 34.335 56.7073)" fill="#FFFFFF" font-family="'ArialNarrow-Bold'" font-size="46px" letter-spacing="3">TOW-AWAY</text>
<text transform="matrix(1 0 0 1 29.8141 99.5647)" fill="#FF0000" font-family="'Arial-BoldMT'" font-size="31px" letter-spacing="6">TEMPORARY</text>
<text transform="matrix(0.8439 0 0 1 12.4187 171.6733)" fill="#FFFFFF" font-family="'ArialNarrow-Bold'" font-size="71px">NO</text>
<text transform="matrix(0.7348 0 0 1 96.6657 175.0747)" fill="#FF0000" font-family="'ArialNarrow'" font-size="74.2094px">PARKING</text>
<g>
	<g>
		<path fill="#FF0000" d="M50.63,200.57c-1.51-0.06-3.33,0.01-5.4,0.43c-10.88,2.05-16.94,11.92-17.98,22.97h0.17
			c2.41-4.34,6.83-8.03,12.67-8.03c9.31,0,15.83,8.6,15.83,21.35c0,11.79-6.6,23.17-17.31,23.17c-10.79,0-18.3-10.6-18.3-28.08
			c0-12.85,3.65-23.11,8.72-29.32c4.29-5.26,9.85-8.46,16.5-9.44c2.04-0.42,3.75-0.5,5.04-0.44L50.63,200.57z M49.06,237.82
			c0-9.17-4.38-14.98-10.95-14.98c-4.42,0-8.47,3.62-10.36,8.31c-0.45,1.15-0.78,2.37-0.78,3.84c0.11,9.83,3.94,18.45,11.71,18.45
			C45.02,253.45,49.06,246.45,49.06,237.82z"/>
	</g>
</g>
<g>
	<g>
		<path fill="#FF0000" d="M68.47,245.24l-1.75,11.54h-6.15l7.78-46.51h7.73l7.71,46.51h-6.34l-1.86-11.54H68.47z M74.8,237.65
			l-1.5-9.84c-0.42-2.77-0.87-6.61-1.26-9.44h-0.09c-0.38,2.84-0.79,6.76-1.2,9.45l-1.47,9.83H74.8z"/>
		<path fill="#FF0000" d="M112.05,239.45c-0.13-5.28-0.28-11.76-0.25-18.04h-0.11c-0.77,5.66-1.82,12.01-2.71,16.93l-3.12,17.67
			h-4.59l-2.8-17.48c-0.79-4.96-1.66-11.32-2.27-17.12h-0.09c-0.12,5.95-0.29,12.74-0.45,18.17l-0.51,17.2h-5.48l1.85-46.51h7.6
			l2.57,15.93c0.85,5.5,1.66,11.13,2.25,16.53h0.12c0.66-5.32,1.51-11.18,2.39-16.58l2.73-15.88h7.5l1.56,46.51h-5.75L112.05,239.45
			z"/>
	</g>
</g>
<g>
	<g>
		<path d="M147.01,213.94h-3.03v-4.1h9.43v4.1h-3.05v18.68h-3.35V213.94z"/>
		<path d="M167.23,220.82c0,8.59-2.3,12.06-5.56,12.06c-3.88,0-5.42-5.46-5.42-11.71c0-6.22,1.87-11.61,5.67-11.61
			C166.05,209.56,167.23,215.6,167.23,220.82z M159.72,221.22c0,5.17,0.72,7.81,2.08,7.81c1.42,0,1.95-3.39,1.95-8
			c0-4.02-0.46-7.62-1.97-7.62C160.45,213.41,159.72,216.34,159.72,221.22z"/>
		<path d="M143.69,235.99v-1.69h26.08v1.69H143.69z"/>
	</g>
</g>
<g>
	<g>
		<path fill="#FF0000" d="M212.2,256.78V239.1h-24.28v-5.92l23.19-41.41h7.5v40.34h7.21v6.99h-7.21v17.68H212.2z M212.2,232.12
			v-22.88c0-3.03,0.04-6.2,0.19-9.32l-0.24-0.07c-1.46,3.43-2.67,6.14-3.96,8.81l-13.32,23.26l-0.02,0.2H212.2z"/>
	</g>
</g>
<g>
	<g>
		<path fill="#FF0000" d="M234.58,210.91c1.82-0.54,4.35-0.95,7.66-0.95c3.68,0,6.4,1.12,8.25,3.71c1.75,2.35,2.79,6.21,2.79,10.58
			c0,4.71-0.89,8.49-2.49,11.07c-2.03,3.28-5.12,4.79-8.38,4.79c-0.7,0-1.33-0.06-1.83-0.18v16.85h-6V210.91z M240.58,232.02
			c0.45,0.17,0.99,0.22,1.74,0.22c3.17,0,4.98-2.95,4.98-7.55c0-4.21-1.53-6.96-4.51-6.96c-1.03,0-1.78,0.16-2.21,0.35V232.02z"/>
		<path fill="#FF0000" d="M281.81,239.45c-0.13-5.28-0.28-11.76-0.25-18.04h-0.11c-0.77,5.66-1.82,12.01-2.71,16.93l-3.12,17.67
			h-4.59l-2.8-17.48c-0.79-4.96-1.66-11.32-2.27-17.12h-0.09c-0.12,5.95-0.29,12.74-0.45,18.17l-0.51,17.2h-5.48l1.85-46.51h7.61
			l2.57,15.93c0.85,5.5,1.66,11.13,2.25,16.53h0.12c0.66-5.32,1.51-11.18,2.39-16.58l2.73-15.88h7.5l1.56,46.51h-5.75L281.81,239.45
			z"/>
	</g>
</g>
</svg>
