<?xml version="1.0" encoding="utf-8"?>
<!-- Generator: Adobe Illustrator 22.0.1, SVG Export Plug-In . SVG Version: 6.00 Build 0)  -->
<svg version="1.1" id="Layer_1" xmlns="http://www.w3.org/2000/svg" xmlns:xlink="http://www.w3.org/1999/xlink" x="0px" y="0px"
	 viewBox="0 0 460 460" enable-background="new 0 0 460 460" xml:space="preserve">
<g>
	<path fill="#FF0000" d="M165.425,281.723l48.65-55.94l-48.65-57.706c-3.271-3.751-7.235-5.627-11.9-5.627
		c-1.87,0-3.27,0.137-4.199,0.41l-5.95,1.63c-0.936,0.273-2.57,0.41-4.9,0.41c-7.7,0-11.55-3.73-11.55-11.2
		c0-7.93,4.779-11.9,14.35-11.9h1.051c0.229,0,6.064,0.35,17.5,1.05c5.829,0.936,10.729,1.4,14.699,1.4
		c3.965,0,9.68-0.405,17.15-1.225c7.465-0.815,13.064-1.225,16.8-1.225c9.565,0,14.351,3.97,14.351,11.9
		c0,7.47-4.436,11.2-13.301,11.2c-1.87,0-3.62-0.268-5.25-0.815l-5.25-1.635h-2.1c-0.936,0-1.4,0.241-1.4,0.711
		c0.465,1.422,1.516,3.084,3.15,4.977l31.85,39.113l33.25-39.113c2.101-2.368,3.15-4.025,3.15-4.977
		c-0.229-0.47-0.81-0.711-1.729-0.711c-1.148,0-3.051,0.41-5.698,1.225c-2.646,0.82-4.665,1.225-6.043,1.225
		c-8.29,0-12.431-3.905-12.431-11.725c0-7.58,4.9-11.375,14.7-11.375c-0.47,0,5.715,0.585,18.55,1.75
		c5.13,0.47,10.615,0.7,16.45,0.7c5.83,0,12.015-0.405,18.55-1.225c6.53-0.815,11.2-1.225,14-1.225c10.266,0,15.4,3.91,15.4,11.725
		c0,7.585-3.981,11.375-11.943,11.375c-1.876,0-4.572-0.405-8.083-1.225c-3.517-0.815-6.213-1.225-8.083-1.225
		c-5.622,0-13.35,5.617-23.188,16.844l-40.753,46.32l54.6,64.57c3.265,3.98,7.229,5.966,11.9,5.966c1.399,0,3.555-0.229,6.475-0.7
		c2.915-0.465,5.075-0.699,6.476-0.699c8.399,0,12.6,3.734,12.6,11.199c0,8.171-4.9,12.25-14.7,12.25h-2.8l-13.65-1.75
		c-3.734-0.465-9.335-0.699-16.8-0.699c-6.3,0-12.6,0.35-18.899,1.05l-12.601,1.399h-3.85c-10.971,0-16.45-3.729-16.45-11.199
		c0-8.165,4.314-12.25,12.95-12.25c3.029,0,7.35,0.47,12.95,1.399c0.465,0.235,1.279,0.351,2.449,0.351c2.33,0,3.5-0.93,3.5-2.801
		c0-0.699-0.35-1.399-1.05-2.1l-1.05-1.4l-38.85-45.5l-39.551,45.5c-1.635,1.871-2.449,3.271-2.449,4.2c0,1.171,1.164,1.75,3.5,1.75
		c1.629,0,4.079-0.229,7.35-0.7c3.265-0.465,5.715-0.699,7.35-0.699c10.03,0,15.051,4.085,15.051,12.25
		c0,7.47-5.021,11.199-15.051,11.199h-4.899l-14-1.399c-7-0.7-13.186-1.05-18.55-1.05c-4.2,0-9.221,0.35-15.051,1.05
		c-7.935,0.93-13.77,1.399-17.5,1.399c-9.8,0-14.699-3.965-14.699-11.899c0-7.7,4.199-11.55,12.6-11.55c1.4,0,3.5,0.175,6.3,0.524
		c2.8,0.351,4.9,0.525,6.3,0.525C150.954,295.801,157.255,291.108,165.425,281.723z"/>
</g>
<circle fill="none" stroke="#FF0000" stroke-width="40" stroke-miterlimit="10" cx="230" cy="230" r="210"/>
</svg>
